<?xml version="1.0" encoding="UTF-8" standalone="no"?>
<svg viewBox="0 0 94 224" width="282" height="672" version="1.1" xmlns="http://www.w3.org/2000/svg" xmlns:svg="http://www.w3.org/2000/svg" xmlns:dc="http://purl.org/dc/elements/1.1/" xmlns:cc="http://creativecommons.org/ns#" xmlns:rdf="http://www.w3.org/1999/02/22-rdf-syntax-ns#">
	<metadata id="metadata4229">
	 <rdf:RDF>
		<cc:Work rdf:about="">
		  <dc:format>image/svg+xml</dc:format>
		  <dc:type rdf:resource="http://purl.org/dc/dcmitype/=Image" />
		</cc:Work>
	 </rdf:RDF>
  </metadata>
	<style>
		#reel1 {
			transform-origin: 29.5px 35.5px;
		}
		#reel2 {
			transform-origin: 64.5px 35.5px;
		}
		#reel1, #reel2 {
			animation: spin 2s infinite linear;
		}
		@keyframes spin {
			from {transform: rotate(0deg);}
			to   {transform: rotate(360deg);}
		}
	</style>
  <g>
	 <path style="fill:#361e25;" d="m 21,76 52,0 0,136 -52,0 z"/>
	 <path style="fill:#f5efe8;" d="m 2,76 0,143 90,0 0,-143 -19,0 0,138 -52,0 0,-138 z" />
	 <path style="fill:#2f2127;" d="m 2,74 90,0 0,-58 -90,0 z" />
	 <path style="fill:#220d0d;" d="m 91,220 2,4 -92,0 2,-4 z" />
	 <path style="fill:#c6b5ae;" d="m 0,220 0,-220 94,0 0,220 -2,-2 0,-216 -90,0 0,216 z" />
	 <path style="fill:#d3c6c1;" d="m 0,220 2,-2 90,0 2,2 z" />
	 <path style="fill:#f5efe8;" d="m 2,16 90,0 0,-14 -90,0 z" />
	 <path style="fill:#e2d4cb;" id="reel1" d="m 29.5,18.5 a 17,17, 0 0 0 -17,17 17,17, 0 0 0 17,17 17,17, 0 0 0 17,-17 17,17, 0 0 0 -17,-17 z m 0,5 a 12,12 0 0 1 1.15,0 l 0.3,2.55 a 9.5,9.5 0 0 0 -1.45,-0.15 9.5,9.5 0 0 0 -1.45,0.1 l 0.3,-2.5 a 12,12 0 0 1 1.15,-0 z m 8.85,15.45 2,1.55 a 12,12 0 0 1 -1.15,2 l -2.35,-1 a 9.5,9.5 0 0 0 1.45,-2.5 z m -17.7,0 a 9.5,9.5 0 0 0 1.45,2.5 l -2.35,1 a 12,12 0 0 1 -1.15,-2 l 2,-1.5 z" />
	 <path style="fill:#d95651;" id="reel2" d="m 64.5,18.5 a 17,17, 0 0 1 17,17 17,17, 0 0 1 -17,17 17,17, 0 0 1 -17,-17 17,17, 0 0 1 17,-17 z m 0,5 a 12,12 0 0 0 -1.15,0 l -0.3,2.55 a 9.5,9.5 0 0 1 1.45,-0.15 9.5,9.5 0 0 1 1.45,0.1 l -0.3,-2.5 a 12,12 0 0 0 -1.15,-0 z m -8.85,15.45 -2,1.55 a 12,12 0 0 0 1.15,2 l 2.35,-1 a 9.5,9.5 0 0 1 -1.45,-2.5 z m 17.7,0 a 9.5,9.5 0 0 1 -1.45,2.5 l 2.35,1 a 12,12 0 0 0 1.15,-2 l -2,-1.5 z" />
	 <path style="fill:#635252;" d="m 36.5,35.5 a 7,7 0 0 1 -7,7 7,7 0 0 1 -7,-7 7,7 0 0 1 7,-7 7,7 0 0 1 7,7 z" />
	 <path style="fill:#635252;" d="m 57.5,35.5 a 7,7 0 0 0 7,7 7,7 0 0 0 7,-7 7,7 0 0 0 -7,-7 7,7 0 0 0 -7,7 z" />
	 <path style="fill:#281f23;" d="m 21,216 0,-4 52,0 0,4 z" />
	 <path style="fill:#806861;" d="m 22,212 2,0 0,-152 -2,0 z" />
	 <path style="fill:#806861;" d="m 70,212 2,0 0,-152 -2,0 z" />
	 <path style="fill:#221a22;" d="m 21,13 52,0 0,-8 -52,0 z" />
	 <path style="fill:#f1e2c1;" d="m 38,6 0,2.5 6,0 0,-2.5 z" />
	 <path style="fill:#ece8e3;" d="m 38,9.5 6,0 0,2.5 -6,0 z" />
	 <path style="fill:#f1e2c1;" d="m 45,6 0,2.5 6,0 0,-2.5 z" />
	 <path style="fill:#ece8e3;" d="m 45,9.5 6,0 0,2.5 -6,0 z" />
	 <path style="fill:#d95651;" d="m 52,6 0,2.5 2.5,0 0,-2.5 z" />
	 <path style="fill:#ece8e3;" d="m 52,9.5 6,0 0,2.5 -6,0 z" />
	 <path style="fill:#d95651;" d="m 59,6 0,2.5 6,0 0,-2.5 z" />
	 <path style="fill:#ece8e3;" d="m 59,9.5 6,0 0,2.5 -6,0 z" />
	 <path style="fill:#d95651;" d="m 72,6 0,2.5 -2.5,0 0,-2.5 z" />
	 <path style="fill:#ece8e3;" d="m 66,9.5 6,0 0,2.5 -6,0 z" />
	 <path style="fill:#ece8e3;" d="m 22,6 15,0 0,6 -15,0 z" />
	 <path style="fill:#cebbb2;" d="m 21,16 0,2 a 2,2 0 0 0 2,2 l 48,0 a 2,2 0 0 0 2,-2 l 0,-2 -52,0 z" />
	 <path style="fill:#f1e2c1;" d="m 55.5,6 0,2.5 2.5,0 0,-2.5 z" />
	 <path style="fill:#f1e2c1;" d="m 68.5,6 0,2.5 -2.5,0 0,-2.5 z" />
	 <path style="fill:#957b74;" d="m 32,64 2,0 0,148 -2,0 z" />
	 <path style="fill:#5f4e4e;" d="m 32,96 2,0 0,12 -2,0 z" />
	 <path style="fill:#c64f49;" d="m 34,76 26,0 0,136 -26,0 z" />
	 <path style="fill:#957b74;" d="m 60,64 2,0 0,148 -2,0 z" />
	 <path style="fill:#5f4e4e;" d="m 60,96 2,0 0,12 -2,0 z" />
	 <path style="fill:#d3c6c1;" d="m 2,76 0,-2 90,0 0,2 z" />
  </g>
</svg>